<svg width="84" height="84" viewBox="0 0 84 84" fill="none" xmlns="http://www.w3.org/2000/svg">
<circle cx="42" cy="42" r="41.5" stroke="white"/>
<path d="M56.1666 40.9377H53.2766C52.7666 35.5402 48.46 31.2193 43.0625 30.7235V27.8335C43.0625 27.2527 42.5808 26.771 42 26.771C41.4191 26.771 40.9375 27.2527 40.9375 27.8335V30.7235C35.54 31.2335 31.2191 35.5402 30.7233 40.9377H27.8333C27.2525 40.9377 26.7708 41.4193 26.7708 42.0002C26.7708 42.581 27.2525 43.0627 27.8333 43.0627H30.7233C31.2333 48.4602 35.54 52.781 40.9375 53.2768V56.1668C40.9375 56.7477 41.4191 57.2293 42 57.2293C42.5808 57.2293 43.0625 56.7477 43.0625 56.1668V53.2768C48.46 52.7668 52.7808 48.4602 53.2766 43.0627H56.1666C56.7475 43.0627 57.2291 42.581 57.2291 42.0002C57.2291 41.4193 56.7475 40.9377 56.1666 40.9377ZM42 46.4202C39.5633 46.4202 37.58 44.4368 37.58 42.0002C37.58 39.5635 39.5633 37.5802 42 37.5802C44.4366 37.5802 46.42 39.5635 46.42 42.0002C46.42 44.4368 44.4366 46.4202 42 46.4202Z" fill="white"/>
</svg>
