<svg width="84" height="84" viewBox="0 0 84 84" fill="none" xmlns="http://www.w3.org/2000/svg">
<circle cx="42" cy="42" r="41.5" stroke="white"/>
<path d="M54.75 56.1665H29.25C28.6692 56.1665 28.1875 55.6848 28.1875 55.104C28.1875 54.5232 28.6692 54.0415 29.25 54.0415H54.75C55.3308 54.0415 55.8125 54.5232 55.8125 55.104C55.8125 55.6848 55.3308 56.1665 54.75 56.1665Z" fill="white"/>
<path d="M51.945 29.9302C49.1967 27.1818 46.505 27.111 43.6858 29.9302L41.9717 31.6443C41.83 31.786 41.7733 32.0127 41.83 32.211C42.9067 35.9652 45.91 38.9685 49.6642 40.0452C49.7208 40.0593 49.7775 40.0735 49.8342 40.0735C49.99 40.0735 50.1317 40.0168 50.245 39.9035L51.945 38.1893C53.3475 36.801 54.0275 35.4552 54.0275 34.0952C54.0417 32.6927 53.3617 31.3327 51.945 29.9302Z" fill="white"/>
<path d="M47.1142 41.3341C46.7033 41.1358 46.3067 40.9375 45.9242 40.7108C45.6125 40.5266 45.315 40.3283 45.0175 40.1158C44.7767 39.96 44.4933 39.7333 44.2242 39.5066C44.1958 39.4925 44.0967 39.4075 43.9833 39.2941C43.5158 38.8975 42.9917 38.3875 42.5242 37.8208C42.4817 37.7925 42.4108 37.6933 42.3117 37.5658C42.17 37.3958 41.9292 37.1125 41.7167 36.7866C41.5467 36.5741 41.3483 36.2625 41.1642 35.9508C40.9375 35.5683 40.7392 35.1858 40.5408 34.7891C40.4633 34.6231 40.3923 34.4592 40.3261 34.2983C40.1874 33.9612 39.7512 33.8646 39.4935 34.1223L31.1483 42.4675C30.9642 42.6516 30.7942 43.0058 30.7517 43.2466L29.9867 48.6725C29.845 49.6358 30.1142 50.5425 30.7092 51.1516C31.2192 51.6475 31.9275 51.9166 32.6925 51.9166C32.8625 51.9166 33.0325 51.9025 33.2025 51.8741L38.6425 51.1091C38.8975 51.0666 39.2517 50.8966 39.4217 50.7125L47.7596 42.3745C48.0192 42.1149 47.9207 41.6712 47.5812 41.5317C47.4295 41.4694 47.2749 41.4038 47.1142 41.3341Z" fill="white"/>
</svg>
