<svg width="84" height="84" viewBox="0 0 84 84" fill="none" xmlns="http://www.w3.org/2000/svg">
<circle cx="42" cy="42" r="41.5" stroke="white"/>
<path d="M46.1508 28.5418V36.9002C46.1508 37.5235 45.4141 37.8352 44.9608 37.4243L42.4816 35.1435C42.2125 34.8885 41.7875 34.8885 41.5183 35.1435L39.0391 37.4102C38.5858 37.8352 37.8491 37.5093 37.8491 36.9002V28.5418C37.8491 28.1452 38.1608 27.8335 38.5575 27.8335H45.4425C45.8391 27.8335 46.1508 28.1452 46.1508 28.5418Z" fill="white"/>
<path d="M49.055 27.9181C48.6442 27.8614 48.2758 28.2156 48.2758 28.6264V37.1548C48.2758 38.2314 47.6383 39.2089 46.6467 39.6481C45.655 40.0731 44.5075 39.8889 43.7142 39.1523L42.4817 38.0189C42.2125 37.7639 41.8017 37.7639 41.5183 38.0189L40.2858 39.1523C39.7758 39.6339 39.11 39.8748 38.4442 39.8748C38.0758 39.8748 37.7075 39.8039 37.3533 39.6481C36.3617 39.2089 35.7242 38.2314 35.7242 37.1548V28.6264C35.7242 28.2156 35.3558 27.8614 34.945 27.9181C30.9783 28.4139 29.25 31.0914 29.25 34.9164V49.0831C29.25 53.3331 31.375 56.1664 36.3333 56.1664H47.6667C52.625 56.1664 54.75 53.3331 54.75 49.0831V34.9164C54.75 31.0914 53.0217 28.4139 49.055 27.9181ZM49.7917 51.5623H37.75C37.1692 51.5623 36.6875 51.0806 36.6875 50.4998C36.6875 49.9189 37.1692 49.4373 37.75 49.4373H49.7917C50.3725 49.4373 50.8542 49.9189 50.8542 50.4998C50.8542 51.0806 50.3725 51.5623 49.7917 51.5623ZM49.7917 45.8956H43.7708C43.19 45.8956 42.7083 45.4139 42.7083 44.8331C42.7083 44.2523 43.19 43.7706 43.7708 43.7706H49.7917C50.3725 43.7706 50.8542 44.2523 50.8542 44.8331C50.8542 45.4139 50.3725 45.8956 49.7917 45.8956Z" fill="white"/>
</svg>
