<svg width="84" height="84" viewBox="0 0 84 84" fill="none" xmlns="http://www.w3.org/2000/svg">
<circle cx="42" cy="42" r="41.5" stroke="white"/>
<path d="M47.9359 27.8335H36.0642C30.9075 27.8335 27.8334 30.9077 27.8334 36.0643V47.936C27.8334 53.0927 30.9075 56.1668 36.0642 56.1668H47.9359C53.0925 56.1668 56.1667 53.0927 56.1667 47.936V36.0643C56.1667 30.9077 53.0925 27.8335 47.9359 27.8335ZM39.1242 46.1085L35.9367 49.296C35.7242 49.5085 35.455 49.6077 35.1859 49.6077C34.9167 49.6077 34.6334 49.5085 34.435 49.296L33.3725 48.2335C32.9475 47.8227 32.9475 47.1427 33.3725 46.7318C33.7834 46.321 34.4492 46.321 34.8742 46.7318L35.1859 47.0435L37.6225 44.6068C38.0334 44.196 38.6992 44.196 39.1242 44.6068C39.535 45.0177 39.535 45.6977 39.1242 46.1085ZM39.1242 36.1918L35.9367 39.3793C35.7242 39.5918 35.455 39.691 35.1859 39.691C34.9167 39.691 34.6334 39.5918 34.435 39.3793L33.3725 38.3168C32.9475 37.906 32.9475 37.226 33.3725 36.8152C33.7834 36.4043 34.4492 36.4043 34.8742 36.8152L35.1859 37.1268L37.6225 34.6902C38.0334 34.2793 38.6992 34.2793 39.1242 34.6902C39.535 35.101 39.535 35.781 39.1242 36.1918ZM49.8767 48.5452H42.4392C41.8584 48.5452 41.3767 48.0635 41.3767 47.4827C41.3767 46.9018 41.8584 46.4202 42.4392 46.4202H49.8767C50.4717 46.4202 50.9392 46.9018 50.9392 47.4827C50.9392 48.0635 50.4717 48.5452 49.8767 48.5452ZM49.8767 38.6285H42.4392C41.8584 38.6285 41.3767 38.1468 41.3767 37.566C41.3767 36.9852 41.8584 36.5035 42.4392 36.5035H49.8767C50.4717 36.5035 50.9392 36.9852 50.9392 37.566C50.9392 38.1468 50.4717 38.6285 49.8767 38.6285Z" fill="white"/>
</svg>
