<svg width="84" height="84" viewBox="0 0 84 84" fill="none" xmlns="http://www.w3.org/2000/svg">
<circle cx="42" cy="42" r="41.5" stroke="white"/>
<path d="M45.3291 27.8335H38.6708C37.1975 27.8335 35.9933 29.0235 35.9933 30.4968V31.8285C35.9933 33.3018 37.1833 34.4918 38.6566 34.4918H45.3291C46.8025 34.4918 47.9925 33.3018 47.9925 31.8285V30.4968C48.0066 29.0235 46.8025 27.8335 45.3291 27.8335Z" fill="white"/>
<path d="M49.4234 31.8284C49.4234 34.0809 47.5817 35.9226 45.3292 35.9226H38.6709C36.4184 35.9226 34.5767 34.0809 34.5767 31.8284C34.5767 31.0351 33.7267 30.5393 33.0184 30.9076C31.0209 31.9701 29.6609 34.0809 29.6609 36.5034V49.8343C29.6609 53.3193 32.5084 56.1668 35.9934 56.1668H48.0067C51.4917 56.1668 54.3392 53.3193 54.3392 49.8343V36.5034C54.3392 34.0809 52.9792 31.9701 50.9817 30.9076C50.2734 30.5393 49.4234 31.0351 49.4234 31.8284ZM46.7317 43.0343L41.0651 48.7009C40.8526 48.9134 40.5834 49.0126 40.3142 49.0126C40.0451 49.0126 39.7759 48.9134 39.5634 48.7009L37.4384 46.5759C37.0276 46.1651 37.0276 45.4851 37.4384 45.0743C37.8492 44.6634 38.5292 44.6634 38.9401 45.0743L40.3142 46.4484L45.2301 41.5326C45.6409 41.1218 46.3209 41.1218 46.7317 41.5326C47.1426 41.9434 47.1426 42.6234 46.7317 43.0343Z" fill="white"/>
</svg>
