<svg width="84" height="84" viewBox="0 0 84 84" fill="none" xmlns="http://www.w3.org/2000/svg">
<circle cx="42" cy="42" r="41.5" stroke="white"/>
<path d="M47.9358 27.8335H36.0642C30.9075 27.8335 27.8333 30.9077 27.8333 36.0643V47.9218C27.8333 53.0927 30.9075 56.1668 36.0642 56.1668H47.9217C53.0783 56.1668 56.1525 53.0927 56.1525 47.936V36.0643C56.1667 30.9077 53.0925 27.8335 47.9358 27.8335ZM41.2917 49.4377C41.2917 49.9477 40.7817 50.2877 40.3142 50.0893C38.6 49.3527 36.3617 48.6727 34.8033 48.4743L34.5342 48.446C33.67 48.3327 32.9617 47.5252 32.9617 46.6468V35.7385C32.9617 34.6477 33.84 33.8402 34.9167 33.9252C36.6875 34.0668 39.3083 34.9168 40.9517 35.8518C41.1783 35.9793 41.2917 36.2202 41.2917 36.461V49.4377ZM51.0383 46.6327C51.0383 47.511 50.33 48.3185 49.4658 48.4318L49.1683 48.4602C47.6242 48.6727 45.4 49.3385 43.6858 50.061C43.2183 50.2593 42.7083 49.9193 42.7083 49.4093V36.4468C42.7083 36.1918 42.8358 35.951 43.0625 35.8235C44.7058 34.9027 47.27 34.081 49.0125 33.9252H49.0692C50.16 33.9252 51.0383 34.8035 51.0383 35.8943V46.6327Z" fill="white"/>
</svg>
