<svg width="84" height="84" viewBox="0 0 84 84" fill="none" xmlns="http://www.w3.org/2000/svg">
<circle cx="42" cy="42" r="41.5" stroke="white"/>
<path d="M50.5 27.8335H33.5C31.1483 27.8335 29.25 29.7177 29.25 32.041V47.4968C29.25 49.8202 31.1483 51.7185 33.5 51.7185H34.5767C35.6958 51.7185 36.7867 52.1577 37.58 52.951L40.0025 55.3452C41.1075 56.436 42.8925 56.436 43.9975 55.3452L46.42 52.951C47.2133 52.1577 48.3042 51.7185 49.4233 51.7185H50.5C52.8517 51.7185 54.75 49.8202 54.75 47.4968V32.041C54.75 29.7177 52.8517 27.8335 50.5 27.8335ZM42 32.8627C43.53 32.8627 44.7625 34.1093 44.7625 35.6252C44.7625 37.1268 43.5725 38.331 42.0992 38.3877C42.0425 38.3877 41.9575 38.3877 41.8867 38.3877C40.3992 38.331 39.2233 37.1268 39.2233 35.6252C39.2375 34.1093 40.47 32.8627 42 32.8627ZM45.8958 45.811C43.7567 47.2418 40.2433 47.2418 38.1042 45.811C36.22 44.5643 36.22 42.496 38.1042 41.2352C40.2575 39.8043 43.7708 39.8043 45.8958 41.2352C47.78 42.496 47.78 44.5502 45.8958 45.811Z" fill="white"/>
</svg>
