<svg width="84" height="84" viewBox="0 0 84 84" fill="none" xmlns="http://www.w3.org/2000/svg">
<circle cx="42" cy="42" r="41.5" stroke="white"/>
<path d="M56.1666 28.896H27.8333C27.2525 28.896 26.7708 28.4143 26.7708 27.8335C26.7708 27.2527 27.2525 26.771 27.8333 26.771H56.1666C56.7475 26.771 57.2291 27.2527 57.2291 27.8335C57.2291 28.4143 56.7475 28.896 56.1666 28.896Z" fill="white"/>
<path d="M48.6158 56.6485C48.4317 57.0168 48.0492 57.2293 47.6667 57.2293C47.5108 57.2293 47.3408 57.1868 47.1992 57.116L42 54.5235L36.8008 57.116C36.6592 57.1868 36.4892 57.2293 36.3333 57.2293C35.9508 57.2293 35.5683 57.0168 35.3842 56.6485C35.115 56.1102 35.3275 55.4727 35.8658 55.2177L40.9375 52.6818V49.0835H43.0625V52.6818L48.1342 55.2177C48.6725 55.4727 48.885 56.1102 48.6158 56.6485Z" fill="white"/>
<path d="M29.25 27.8335V44.9752C29.25 47.6668 30.6667 49.0835 33.3583 49.0835H50.6417C53.3333 49.0835 54.75 47.6668 54.75 44.9752V27.8335H29.25ZM49.055 37.1552L44.5925 40.881C44.1817 41.221 43.6575 41.3627 43.1617 41.2777C42.6517 41.1927 42.2125 40.881 41.9433 40.4277L40.4558 37.9485L36.305 41.4052C36.1067 41.5752 35.8658 41.646 35.625 41.646C35.3275 41.646 35.0158 41.5185 34.8033 41.2635C34.4208 40.8102 34.4917 40.1443 34.945 39.7618L39.4075 36.036C39.8183 35.696 40.3425 35.5543 40.8383 35.6393C41.3483 35.7243 41.7875 36.036 42.0567 36.4893L43.5442 38.9685L47.695 35.5118C48.1483 35.1293 48.8142 35.2002 49.1967 35.6535C49.565 36.1068 49.5083 36.7727 49.055 37.1552Z" fill="white"/>
</svg>
