<svg width="84" height="84" viewBox="0 0 84 84" fill="none" xmlns="http://www.w3.org/2000/svg">
<circle cx="42" cy="42" r="41.5" stroke="white"/>
<path d="M49.8767 27.8335H34.0808C30.6383 27.8335 27.8333 30.6385 27.8333 34.081V43.2893V43.5727C27.8333 47.0293 30.6383 49.8202 34.0808 49.8202H39.5208C40.3 49.8202 40.9375 50.4577 40.9375 51.2368V52.611C40.9375 53.3902 40.3 54.0277 39.5208 54.0277H36.0925C35.5117 54.0277 35.03 54.5093 35.03 55.0902C35.03 55.671 35.4975 56.1668 36.0925 56.1668H47.9217C48.5025 56.1668 48.9842 55.6852 48.9842 55.1043C48.9842 54.5235 48.5025 54.0418 47.9217 54.0418H44.4933C43.7142 54.0418 43.0767 53.4043 43.0767 52.6252V51.251C43.0767 50.4718 43.7142 49.8343 44.4933 49.8343H49.8908C53.3475 49.8343 56.1383 47.0293 56.1383 43.5868V43.3035V34.0952C56.1242 30.6385 53.3192 27.8335 49.8767 27.8335Z" fill="white"/>
</svg>
