<svg width="84" height="84" viewBox="0 0 84 84" fill="none" xmlns="http://www.w3.org/2000/svg">
<circle cx="42" cy="42" r="41.5" stroke="white"/>
<path d="M51.1658 48.8427L51.7183 53.3193C51.86 54.4952 50.5991 55.3168 49.5933 54.7077L44.6916 51.7893C44.3516 51.591 44.2666 51.166 44.4508 50.826C45.1591 49.5227 45.5416 48.0493 45.5416 46.576C45.5416 41.391 41.0933 37.1693 35.625 37.1693C34.5058 37.1693 33.415 37.3393 32.395 37.6793C31.8708 37.8493 31.3608 37.3677 31.4883 36.8293C32.7775 31.6727 37.7358 27.8335 43.6575 27.8335C50.5708 27.8335 56.1666 33.061 56.1666 39.5068C56.1666 43.3318 54.1975 46.7177 51.1658 48.8427Z" fill="white"/>
<path d="M43.4166 46.5756C43.4166 48.2614 42.7933 49.8198 41.745 51.0523C40.3425 52.7523 38.1183 53.8431 35.625 53.8431L31.9275 56.0389C31.3041 56.4214 30.5108 55.8973 30.5958 55.1748L30.95 52.3839C29.0516 51.0664 27.8333 48.9556 27.8333 46.5756C27.8333 44.0823 29.165 41.8864 31.205 40.5831C32.4658 39.7614 33.9816 39.2939 35.625 39.2939C39.9316 39.2939 43.4166 42.5523 43.4166 46.5756Z" fill="white"/>
</svg>
